# xmcd
#
# Track frame offsets:
#	150
#	11321
#	21708
#	34743
#	45149
#	59234
#	69453
#	79085
#	92518
#	103937
#	116244
#	129499
#	143382
#	154822
#	166178
#	178481
#	190732
#	201925
#	214118
#	227578
#	239666
#	253408
#	267021
#
# Disc length: 3765 seconds
#
# Revision: 1
# Processed by: cddbd v1.5PL3 Copyright (c) Steve Scherf et al.
# Submitted via: EasyCDDAExtractor 7.0.5.1
#
DISCID=4a0eb317
DTITLE=Jimmy "T-99" Nelson - Cry Hard luck
DYEAR=1900
DGENRE=Rock and Roll
TTITLE0=Cry hard luck
TTITLE1=Married men like sport
TTITLE2=Meet me with your black dress on
TTITLE3=Right around your corner
TTITLE4=T-99 Blues
TTITLE5=Bad habit blues
TTITLE6=Sweetest little girl
TTITLE7=Little miss teasin' Brown
TTITLE8=Rich little girl
TTITLE9=Mean poor girl
TTITLE10=Big mouth
TTITLE11=Baby child
TTITLE12=Second hand fool
TTITLE13=Cry hard luck
TTITLE14=Fine little honey dripper
TTITLE15=T-99 blues
TTITLE16=She's my baby
TTITLE17=Rain drop blues
TTITLE18=Big eyed, Brown eyed girl of mine
TTITLE19=Last time around
TTITLE20=Unlock the door
TTITLE21=I sat and cried
TTITLE22=She's my baby
EXTD=
EXTT0=
EXTT1=
EXTT2=
EXTT3=
EXTT4=
EXTT5=
EXTT6=
EXTT7=
EXTT8=
EXTT9=
EXTT10=
EXTT11=
EXTT12=
EXTT13=
EXTT14=
EXTT15=
EXTT16=
EXTT17=
EXTT18=
EXTT19=
EXTT20=
EXTT21=
EXTT22=
PLAYORDER=
